<svg xmlns="http://www.w3.org/2000/svg" width="70" height="70" viewBox="0 0 70 70">
  <g id="Grupo_930452" data-name="Grupo 930452" transform="translate(-230 -1095)">
    <g id="Grupo_151952" data-name="Grupo 151952" transform="translate(-182 -69)">
      <circle id="Elipse_4817" data-name="Elipse 4817" cx="35" cy="35" r="35" transform="translate(412 1164)" fill="#fff"/>
      <g id="archivo-pdf" transform="translate(424.215 1178)">
        <g id="Grupo_929764" data-name="Grupo 929764" transform="translate(8.718 1.61)">
          <path id="Trazado_666776" data-name="Trazado 666776" d="M42.427,3.833v35.5A1.836,1.836,0,0,1,40.59,41.17H13.047a1.836,1.836,0,0,1-1.836-1.836V10.443L19.651,2H40.59a1.836,1.836,0,0,1,1.836,1.836Z" transform="translate(-11.211 -1.997)" fill="#fff"/>
        </g>
        <g id="Grupo_929765" data-name="Grupo 929765" transform="translate(8.717 1.61)">
          <path id="Trazado_666777" data-name="Trazado 666777" d="M42.425,3.833v35.5a1.834,1.834,0,0,1-1.836,1.836H13.045a1.834,1.834,0,0,1-1.836-1.836v-1.9l.1.055C45.014,38.483,34.823,2,34.823,2h5.766a1.834,1.834,0,0,1,1.836,1.836Z" transform="translate(-11.209 -1.997)" fill="#dee1e6"/>
        </g>
        <path id="Trazado_666778" data-name="Trazado 666778" d="M19.651,2V9.219a1.224,1.224,0,0,1-1.224,1.224H11.211Z" transform="translate(-2.493 -0.387)" fill="#dee1e6"/>
        <g id="Grupo_929766" data-name="Grupo 929766" transform="translate(5.398 18.601)">
          <path id="Trazado_666779" data-name="Trazado 666779" d="M29.67,32.517V42.922a1.224,1.224,0,0,1-1.224,1.224H7.623A1.834,1.834,0,0,1,5.787,42.31V29.757l.031.012a1.8,1.8,0,0,0,.508.985,1.832,1.832,0,0,0,1.3.539H28.446A1.22,1.22,0,0,1,29.67,32.517Z" transform="translate(-5.787 -29.757)" fill="#6b21ff"/>
        </g>
        <g id="Grupo_929767" data-name="Grupo 929767" transform="translate(5.393 20.137)">
          <path id="Trazado_666780" data-name="Trazado 666780" d="M29.668,33.491V43.9a1.224,1.224,0,0,1-1.224,1.224H7.615a1.838,1.838,0,0,1-1.836-1.836v-1.01c20.474,1.469,21.343-10.007,21.343-10.007h1.322A1.22,1.22,0,0,1,29.668,33.491Z" transform="translate(-5.779 -32.267)" fill="#2e0877"/>
        </g>
        <g id="Grupo_929768" data-name="Grupo 929768" transform="translate(4.785 1)">
          <path id="Trazado_666781" data-name="Trazado 666781" d="M9.1,26.247v3.685H7.623a1.832,1.832,0,0,1-1.3-.539,1.844,1.844,0,0,1,1.3-3.146Z" transform="translate(-5.174 -10.793)" fill="#2e0877"/>
          <path id="Trazado_666782" data-name="Trazado 666782" d="M38.1,1H17.161a.569.569,0,0,0-.435.178L8.286,9.624a.616.616,0,0,0-.178.435v5.784H7.233A2.457,2.457,0,0,0,4.785,18.3V31.151A2.448,2.448,0,0,0,7.233,33.6h.875v5.35A2.452,2.452,0,0,0,10.557,41.4H38.1a2.456,2.456,0,0,0,2.448-2.448V3.448A2.452,2.452,0,0,0,38.1,1ZM16.549,3.087V8.835a.614.614,0,0,1-.612.612H10.2ZM7.233,17.067H8.1v2.461H7.233a1.23,1.23,0,0,1,0-2.461Zm0,15.308a1.22,1.22,0,0,1-1.224-1.224V20.415a2.376,2.376,0,0,0,1.224.337l20.829-.006a.614.614,0,0,1,.612.612V31.763a.61.61,0,0,1-.612.612H7.233Zm32.091,6.574A1.228,1.228,0,0,1,38.1,40.173H10.557a1.224,1.224,0,0,1-1.224-1.224V33.6h18.73A1.838,1.838,0,0,0,29.9,31.763V21.358a1.842,1.842,0,0,0-1.836-1.836H9.333V10.671h6.6a1.842,1.842,0,0,0,1.836-1.836V2.224H38.1a1.224,1.224,0,0,1,1.224,1.224Z" transform="translate(-4.785 -1)"/>
        </g>
        <g id="Grupo_929772" data-name="Grupo 929772" transform="translate(10.033 23.925)">
          <g id="Grupo_929769" data-name="Grupo 929769">
            <path id="Trazado_666783" data-name="Trazado 666783" d="M17.362,40.283c0,1.361-.871,1.8-2.226,1.8h-.911v1.506h-.867V38.454h1.763C16.495,38.454,17.362,38.9,17.362,40.283Zm-.889-.07c0-.8-.562-.973-1.366-.973h-.881V41.3h1.006C16.06,41.3,16.473,41.041,16.473,40.213Z" transform="translate(-13.359 -38.454)" fill="#fff"/>
          </g>
          <g id="Grupo_929770" data-name="Grupo 929770" transform="translate(5.024 0)">
            <path id="Trazado_666784" data-name="Trazado 666784" d="M26.194,41c0,1.6-.948,2.593-2.923,2.593h-1.7V38.454H23.33c1.745,0,2.865.86,2.865,2.542Zm-.874.022q0-1.763-2.02-1.763h-.867v3.518H23.4c1.211,0,1.924-.568,1.924-1.755Z" transform="translate(-21.567 -38.454)" fill="#fff"/>
          </g>
          <g id="Grupo_929771" data-name="Grupo 929771" transform="translate(10.768 0)">
            <path id="Trazado_666785" data-name="Trazado 666785" d="M31.818,39.262v1.41h2.277v.8H31.818v2.115h-.867V38.454h3.423l-.007.808Z" transform="translate(-30.951 -38.454)" fill="#fff"/>
          </g>
        </g>
      </g>
    </g>
  </g>
</svg>
